<?xml version="1.0" encoding="UTF-8"?>
<svg xmlns="http://www.w3.org/2000/svg" id="Ebene_1" data-name="Ebene 1" viewBox="0 0 624.61 325.28" width="192" height="100">
  <defs>
    <style>
      .cls-1 {
        fill: #f8aa2d;
      }

      .cls-1, .cls-2 {
        stroke-width: 0px;
      }

      .cls-2 {
        fill: #3c3e3e;
      }
    </style>
  </defs>
  <path class="cls-2" d="M242.79,56.59c9,0,16.07,5.72,17.51,14.02h-36.18c1.53-8.3,9.07-14.02,18.66-14.02M243.53,121.57c15.01,0,28.82-7.48,36.04-19.52l.38-.63-16.34-12.21-.48.7c-4.89,7.18-11.32,10.82-19.11,10.82-9.79,0-18.28-6.07-20.2-14.26h57.15l.11-.69c.51-3.22.75-6.21.75-9.15,0-23.66-15.79-39.55-39.3-39.55s-41.62,17.71-41.7,42.12c0,24.55,17.96,42.37,42.7,42.37"/>
  <path class="cls-2" d="M157.61,56.59c9,0,16.07,5.72,17.51,14.02h-36.18c1.53-8.3,9.07-14.02,18.66-14.02M158.35,121.57c15.01,0,28.82-7.48,36.04-19.52l.38-.63-16.34-12.21-.48.7c-4.89,7.18-11.32,10.82-19.11,10.82-9.79,0-18.28-6.07-20.2-14.26h57.15l.11-.69c.51-3.23.75-6.22.75-9.15,0-23.66-15.8-39.55-39.3-39.55s-41.62,17.71-41.71,42.12c0,24.55,17.96,42.37,42.7,42.37"/>
  <path class="cls-2" d="M96.99,113.17c9.15-6.2,13.99-14.97,13.99-25.36,0-22.3-17.55-28.49-37.88-35.65l-1.32-.47c-1.93-.68-3.76-1.3-5.47-1.87-10.48-3.53-16.26-5.47-16.26-12.67s8.02-11.19,15.58-11.19c12.1,0,19.84,8.74,24.21,16.08l.45.76,18.54-13.19-.37-.64c-8.85-15.55-24.65-24.83-42.26-24.83-19.7,0-40.63,11.6-40.63,33.1s16.5,28.55,39.81,35.88c13.43,4.22,21.2,8.01,21.2,14.86s-7.94,11.68-18.47,11.68c-12.36,0-22.62-6.5-28.16-17.83l-.42-.87-17.79,12.87.26.6c7.24,16.44,25.24,27.06,45.86,27.06,10.7,0,21.31-3.03,29.12-8.31"/>
  <path class="cls-2" d="M455.49,70.61c1.53-8.3,9.07-14.02,18.67-14.02,9,0,16.07,5.72,17.52,14.02h-36.18ZM473.91,37.08c-24.08,0-41.62,17.71-41.71,42.12,0,24.55,17.96,42.37,42.7,42.37,15.01,0,28.82-7.48,36.04-19.52l.38-.63-16.34-12.21-.48.7c-4.89,7.18-11.32,10.82-19.11,10.82-9.79,0-18.28-6.07-20.2-14.26h57.15l.11-.69c.51-3.22.75-6.21.75-9.15,0-23.66-15.8-39.55-39.3-39.55"/>
  <path class="cls-2" d="M185.23,169.61c1.53-8.3,9.07-14.01,18.67-14.01,9,0,16.07,5.72,17.51,14.01h-36.18ZM203.65,136.08c-24.08,0-41.62,17.71-41.71,42.12,0,24.55,17.96,42.37,42.7,42.37,15.01,0,28.82-7.48,36.04-19.52l.38-.63-16.34-12.21-.48.7c-4.89,7.18-11.32,10.82-19.11,10.82-9.79,0-18.28-6.07-20.2-14.26h57.15l.11-.69c.51-3.23.76-6.22.76-9.15,0-23.66-15.8-39.55-39.31-39.55"/>
  <path class="cls-2" d="M322.84,121.9c9.82,0,18.6-3.51,23.95-9.49l.13,2.74c6.21-5.09,13.6-8.56,22.01-10.36V38.74h-22.82v45.76c0,11.1-8.53,16.07-16.98,16.07-9.61,0-15.57-6.16-15.57-16.07v-45.76h-22.82v51.23c0,19.1,12.9,31.94,32.1,31.94h0Z"/>
  <path class="cls-1" d="M379.24,153.37c-5.65,0-10.25,4.6-10.25,10.25s4.6,10.25,10.25,10.25,10.25-4.6,10.25-10.25-4.6-10.25-10.25-10.25M379.24,187.43c-13.13,0-23.81-10.68-23.81-23.81s10.68-23.81,23.81-23.81,23.81,10.68,23.81,23.81-10.68,23.81-23.81,23.81"/>
  <path class="cls-2" d="M389.57,103.66c8.8.82,16.49,3.35,22.9,7.41v-53.07h22.1v-19.26h-22.68v-5.73c0-8.74,4.6-13.17,13.67-13.17,3.89,0,7.35.64,10.27,1.92l1,.43,2.46-19.12-.63-.22c-4.43-1.51-8.93-2.86-15.33-2.86-20.72,0-33.59,12.18-33.59,31.77v6.96h-14.16v19.26h13.99v45.66h0Z"/>
  <path class="cls-2" d="M288.26,220.49c10.42,0,19.57-3.4,25.01-9.18v.5c0,12.83-9.46,21.12-24.1,21.12-8.37,0-16.25-3.69-24.1-11.27l-.57-.55-14.77,14.5.49.58c9.29,10.96,23.85,17.51,38.95,17.51,24.76,0,41.9-13.21,45.88-34.41-11.25-28.83-12.92-59.32-4.15-81.53h-16.76l-.36,8.32c-6.08-6.62-14.65-9.98-25.51-9.98-23.14,0-39.31,17.32-39.31,42.12s16.53,42.28,39.31,42.28h0ZM292.65,156.75c12.05,0,20.79,8.98,20.79,21.37s-8.94,21.7-20.79,21.7-20.71-9.33-20.71-21.7,8.51-21.37,20.71-21.37h0Z"/>
  <path class="cls-2" d="M118.71,294.46c-6.22,0-10.59,3.57-12.59,6.16l4.53,4.53c1.94-2.06,4.4-3.73,7.82-3.73,3.76,0,6.4,2.37,6.4,5.64v.68c-1.91-.68-4.19-1.02-6.22-1.02-7.85,0-12.96,3.88-12.96,9.45s4.47,9.08,11.18,9.08c3.73,0,6.77-1.51,8.37-3.91v3.29h7.51v-18.19c0-7.39-5.39-11.98-14.04-11.98h0ZM118.1,319.37c-3.02,0-4.93-1.42-4.93-3.63s2.43-3.76,6.03-3.76c2.34,0,4.22.49,5.66,1.14,0,3.73-2.99,6.25-6.77,6.25h0Z"/>
  <polygon class="cls-2" points="140.55 324.63 148.44 324.63 148.44 281.28 140.55 281.28 140.55 324.63 140.55 324.63"/>
  <polygon class="cls-2" points="87.1 316.35 77.7 283.47 70.22 283.47 60.83 316.35 51.57 282.82 43.22 282.82 54.68 324.63 66.31 324.63 73.95 297.7 81.61 324.63 93.25 324.63 104.71 282.82 96.36 282.82 87.1 316.35 87.1 316.35"/>
  <path class="cls-2" d="M207.27,294.46c-4.4,0-7.57,1.97-9.11,4.03l-.15-3.42h-7.51v29.56h7.88v-16.53c0-4.09,3.08-6.31,6.56-6.31s6.13,2.22,6.13,6.31v16.53h7.88v-18.56c0-7.11-4.83-11.61-11.67-11.61h0Z"/>
  <path class="cls-2" d="M261.83,295.85c-5.18,2.33-8.55,7.44-8.57,13.97,0,8.62,6.1,15.46,15.58,15.46,5.2,0,10.38-2.49,13.15-7.11l-5.6-4.19c-1.91,2.8-4.43,4.16-7.36,4.16-3.76,0-7.3-2.43-7.88-5.91h21.37c.19-1.17.28-2.28.28-3.36,0-4.47-1.54-8.06-4.09-10.55-5.88-.6-11.5-1.43-16.86-2.47h0ZM261.27,306.93c.43-3.36,3.39-5.82,7.3-5.82s6.47,2.52,6.87,5.82h-14.16Z"/>
  <path class="cls-2" d="M238.46,306.5c-3.66-.89-5.54-1.42-5.54-3.02,0-1.48,1.75-2.37,4.31-2.37,3.14,0,5.33,1.6,6.62,3.66l5.05-4.16c-2.12-3.2-5.85-6.16-11.85-6.16-6.43,0-11.55,3.57-11.55,9.11,0,6.07,4.56,8.13,11.02,9.58,3.6.8,5.17,1.35,5.17,2.93,0,1.66-1.85,2.59-4.22,2.59-2.99,0-6-1.79-7.79-4.56l-5.3,4.28c2.68,4.19,7.36,6.86,13.18,6.86,6.31,0,11.67-3.6,11.67-9.17,0-5.85-4.19-7.97-10.77-9.58h0Z"/>
  <path class="cls-2" d="M301.41,299.47c-3.58,0-7.05-.09-10.45-.25-2.45,2.68-3.9,6.34-3.92,10.61,0,8.62,6.1,15.46,15.58,15.46,5.2,0,10.38-2.49,13.15-7.11l-5.6-4.19c-1.91,2.8-4.43,4.16-7.36,4.16-3.76,0-7.3-2.43-7.88-5.91h21.37c.19-1.17.28-2.28.28-3.36,0-4.17-1.35-7.57-3.61-10.02-3.83.39-7.68.61-11.55.61h0ZM295.05,306.93c.43-3.36,3.39-5.82,7.3-5.82s6.47,2.52,6.87,5.82h-14.16Z"/>
  <path class="cls-2" d="M169.89,294.46c-8.77,0-15.18,6.34-15.21,15.36,0,8.62,6.1,15.46,15.58,15.46,5.2,0,10.38-2.49,13.15-7.11l-5.6-4.19c-1.91,2.8-4.43,4.16-7.36,4.16-3.76,0-7.3-2.43-7.88-5.91h21.37c.18-1.17.28-2.28.28-3.36,0-8.96-6.19-14.41-14.32-14.41h0ZM162.68,306.93c.43-3.36,3.39-5.82,7.3-5.82s6.47,2.52,6.87,5.82h-14.16Z"/>
  <path class="cls-2" d="M90.11,201.48l8.5-28.76,8.66,29.29c12.68,1.52,23.82,5.65,34.23,11.26l22.27-75.53h-23.65l-15.14,55.71-16.32-54.47h-20.09l-16.4,54.47-15.06-55.71h-23.65l20.48,69.47c10.2-3.09,22.17-5.23,36.18-5.73h0Z"/>
  <path class="cls-2" d="M545.76,95.38v-17.09c0-18.62,12.86-20.63,18.39-20.63,3.94,0,7.19.95,9.58,1.78l.99.34,1.8-20.63-.6-.21c-2.43-.85-6.24-1.87-10.62-1.87-8.55,0-15.68,3.76-19.99,10.41l-.33-8.76h-22.13v80.61c6.43-9.06,13.95-17.24,22.9-23.97h0Z"/>
  <path class="cls-1" d="M383.01,116.91c-16.59,0-28.78,6.41-36.25,19.06-13.41,22.73-9.41,63.3,9.53,96.45,5.25,9.19,11.26,17.2,17.86,23.89,29.47-26.61,46.94-66.02,47.16-96.15.12-15.95-4.59-42.78-37.36-43.25-.31,0-.62,0-.93,0M301.41,299.47c-66.58,0-101.97-27.27-133.19-51.33-23.14-17.82-43.12-33.22-71.77-33.22-64.78,0-82.78,36.77-83.52,38.34-1.58,3.38-5.6,4.86-8.98,3.29-3.39-1.56-4.88-5.54-3.34-8.94.86-1.89,21.87-46.25,95.84-46.25,33.27,0,55.99,17.51,80.04,36.04,29.51,22.74,62.96,48.51,124.92,48.51,23.56,0,44.56-8.21,62.16-21.01-7.05-7.32-13.46-15.95-19.05-25.76-21.54-37.72-25.42-82.97-9.43-110.06,9.94-16.84,26.5-25.72,47.93-25.72.37,0,.74,0,1.12,0,32.01.46,50.97,21.73,50.72,56.9-.21,29.31-14.3,64.11-36.79,90.82-4.33,5.14-8.88,9.9-13.62,14.27,12.82,9.62,27.22,14.79,42.13,14.79,35.76,0,47.18-35.68,60.4-76.99,17.54-54.83,39.38-133.52,131.39-126.18,3.73.3,6.52,3.56,6.22,7.29-.3,3.74-3.62,6.55-7.29,6.22-81.29-6.46-99.65,61.31-117.41,116.79-14.22,44.44-27.65,86.42-73.31,86.42-18.95,0-37.06-6.82-52.78-19.43-21.7,16.41-46.6,25.2-72.38,25.2"/>
</svg>
